<?xml version="1.0" encoding="iso-8859-1"?>
<!-- Generator: Adobe Illustrator 21.0.0, SVG Export Plug-In . SVG Version: 6.00 Build 0)  -->
<svg xmlns="http://www.w3.org/2000/svg" xmlns:xlink="http://www.w3.org/1999/xlink" version="1.1" id="Capa_1" x="0px" y="0px" viewBox="0 0 512 512" style="enable-background:new 0 0 512 512;" xml:space="preserve" width="512" height="512">
<g>
	<path d="M195,332h-15v-15.311c18.694-14.085,30-36.235,30-59.689v-26.789c0-38.211-26.875-71.397-62.514-77.195   C101.429,145.524,60,180.691,60,227v30c0,23.455,11.306,45.604,30,59.689V332H75c-41.355,0-75,33.645-75,75v90   c0,8.284,6.716,15,15,15h240c8.284,0,15-6.716,15-15v-90C270,365.645,236.355,332,195,332z M240,482H30v-75   c0-24.813,20.187-45,45-45h30c8.284,0,15-6.716,15-15v-38.322c0-5.341-2.839-10.278-7.455-12.964C98.428,287.498,90,273.025,90,257   v-30c0-26.912,23.881-49.057,52.668-44.373C163.951,186.089,180,206.546,180,230.211V257c0,16.025-8.428,30.498-22.545,38.713   c-4.616,2.686-7.455,7.624-7.455,12.964V347c0,8.284,6.716,15,15,15h30c24.813,0,45,20.187,45,45V482z"/>
	<path d="M377,60c-24.813,0-45,20.187-45,45c0,8.284,6.716,15,15,15s15-6.716,15-15c0-8.271,6.729-15,15-15s15,6.729,15,15   c0,5.591-3.079,10.684-8.035,13.292C370.417,125.42,362,140.182,362,156.815V165c0,8.284,6.716,15,15,15s15-6.716,15-15v-8.185   c0-5.295,2.385-10.107,5.935-11.974C412.779,137.03,422,121.764,422,105C422,80.187,401.813,60,377,60z"/>
	<circle cx="377" cy="210" r="15"/>
	<path d="M377,0c-74.439,0-135,60.561-135,135c0,28.062,8.771,55.396,24.893,78.12l-22.374,33.56   c-3.069,4.603-3.355,10.521-0.745,15.398c2.61,4.877,7.693,7.922,13.225,7.922h120c74.439,0,135-60.561,135-135S451.439,0,377,0z    M377,240h-91.972l12.806-19.209c3.708-5.562,3.288-12.907-1.03-18.01C280.809,183.878,272,159.806,272,135   c0-57.897,47.103-105,105-105s105,47.103,105,105S434.897,240,377,240z"/>
</g>















</svg>
